<svg xmlns="http://www.w3.org/2000/svg" viewBox="0 0 96.78 100"><defs><style>.cls-1{fill:#009;}.cls-2{fill:#5bdfb8;}.cls-3{fill:#bebfc1;}</style></defs><title>ic-guidelines</title><g id="Layer_2" data-name="Layer 2"><g id="Layer_1-2" data-name="Layer 1"><rect class="cls-1" x="82.23" y="42" width="12.5" height="32.51"/><path d="M95.21,72.57H83.45v-29H95.21a1.58,1.58,0,0,0,0-3.16H81.87A1.58,1.58,0,0,0,80.29,42v1.27H74.67a7.33,7.33,0,0,0-7.13-5.72H65V12.48a1.57,1.57,0,0,0-1.57-1.58H50.1a8.71,8.71,0,0,0-8.55-7.12h-12a8.69,8.69,0,0,0-8.54,7.12H5.35a1.57,1.57,0,0,0-1.57,1.58V98.42A1.57,1.57,0,0,0,5.35,100H63.43A1.57,1.57,0,0,0,65,98.42V76.54h9.87a8.49,8.49,0,0,0,5.48-2,1.57,1.57,0,0,0,1.52,1.16H95.21a1.58,1.58,0,0,0,0-3.15ZM29.59,6.93h12a5.56,5.56,0,0,1,5.32,4H24.28A5.55,5.55,0,0,1,29.59,6.93ZM61.85,96.84H6.93V14.05H61.85V37.54h-4.7V21.3a1.57,1.57,0,0,0-1.57-1.57H13.2a1.57,1.57,0,0,0-1.57,1.57V89.59a1.57,1.57,0,0,0,1.57,1.58H55.58a1.57,1.57,0,0,0,1.57-1.58V52.14h4.7ZM54,52.14V88H14.78V22.88H54V37.54C43.32,37.54,43.24,52.14,54,52.14ZM80.29,68a5.42,5.42,0,0,1-5.42,5.42H65V50.56A1.57,1.57,0,0,0,63.43,49H53.26a4.15,4.15,0,1,1,0-8.29H67.54a4.15,4.15,0,0,1,4.15,4.14,1.57,1.57,0,0,0,1.57,1.58h7Z"/><path d="M49.43,74.51H40.54a1.58,1.58,0,1,0,0,3.16h8.89a1.58,1.58,0,1,0,0-3.16Z"/><path d="M51,32.51a1.58,1.58,0,0,0-1.58-1.58H40.54a1.58,1.58,0,1,0,0,3.15h8.89A1.57,1.57,0,0,0,51,32.51Z"/><path d="M47.82,47.33H40.54a1.58,1.58,0,1,0,0,3.15h8.57C48.36,49.65,47.22,48.28,47.82,47.33Z"/><path d="M39,61.56a1.58,1.58,0,0,0,1.58,1.58h8.89a1.58,1.58,0,0,0,0-3.15H40.54A1.57,1.57,0,0,0,39,61.56Z"/><path class="cls-2" d="M30,29.94a.25.25,0,0,1,.06.17.23.23,0,0,1-.06.16l-4.18,4.62-1.66,1.84a.17.17,0,0,1-.3,0l-1.67-1.84L20,32.51a.25.25,0,0,1,0-.34l1.52-1.68a.2.2,0,0,1,.14-.06.25.25,0,0,1,.16.06L24,32.9l4.16-4.62q.16-.16.3,0Z"/><path class="cls-2" d="M30,44.76a.27.27,0,0,1,0,.34l-4.18,4.62-1.66,1.83a.17.17,0,0,1-.3,0l-1.67-1.83L20,47.33A.24.24,0,0,1,20,47l1.52-1.68a.17.17,0,0,1,.14-.07.21.21,0,0,1,.16.07L24,47.73l4.16-4.62q.16-.18.3,0Z"/><path class="cls-2" d="M30,57.42a.25.25,0,0,1,.06.17.23.23,0,0,1-.06.16l-4.18,4.62-1.66,1.84a.17.17,0,0,1-.3,0l-1.67-1.84L20,60a.25.25,0,0,1,0-.34L21.51,58a.2.2,0,0,1,.14-.06.25.25,0,0,1,.16.06L24,60.38l4.16-4.62q.16-.18.3,0Z"/><path class="cls-2" d="M30,73.53a.23.23,0,0,1,.06.16.25.25,0,0,1-.06.17l-4.18,4.62-1.66,1.84a.18.18,0,0,1-.3,0l-1.67-1.84L20,76.09a.24.24,0,0,1,0-.33l1.52-1.68a.21.21,0,0,1,.14-.07.26.26,0,0,1,.16.07L24,76.49l4.16-4.62q.16-.18.3,0Z"/><path class="cls-3" d="M3.78,12.47A1.57,1.57,0,0,1,5.35,10.9h15.7a8.69,8.69,0,0,1,8.54-7.12h12a8.57,8.57,0,0,1,4,1A8.68,8.68,0,0,0,37.78,0h-12a8.71,8.71,0,0,0-8.55,7.12H1.58A1.58,1.58,0,0,0,0,8.7v86a1.57,1.57,0,0,0,1.58,1.57h2.2Z"/><path class="cls-3" d="M50.1,10.9H61.23V8.7a1.58,1.58,0,0,0-1.58-1.58H48.39A8.7,8.7,0,0,1,50.1,10.9Z"/></g></g></svg>