<svg xmlns="http://www.w3.org/2000/svg" viewBox="0 0 80.42 100"><defs><style>.cls-1{fill:#bebfc1;}.cls-2{fill:#009;}.cls-3{fill:#5bdfb8;}</style></defs><title>ic-conversations</title><g id="Layer_2" data-name="Layer 2"><g id="Layer_1-2" data-name="Layer 1"><path class="cls-1" d="M72.15,27.14V16.58a1.52,1.52,0,0,0-1.51-1.51H17.26a1.52,1.52,0,0,0-1.51,1.51V18.8H66.92a1.5,1.5,0,0,1,1.5,1.5V30.87a9.22,9.22,0,0,1,8.27,9.07V72a8.91,8.91,0,0,1-1.18,4.4,9.47,9.47,0,0,0,4.91-8.12v-32A9.24,9.24,0,0,0,72.15,27.14Z"/><path class="cls-2" d="M52.48,11A1.29,1.29,0,0,0,53,11a1.39,1.39,0,0,0,1.31-.93L56.4,4a1.39,1.39,0,0,0-2.62-.93L51.63,9.18A1.39,1.39,0,0,0,52.48,11Z"/><path class="cls-2" d="M62.06,15.74a1.35,1.35,0,0,0,.9-.34l4.88-4.21A1.39,1.39,0,1,0,66,9.08l-4.88,4.21a1.4,1.4,0,0,0,.92,2.45Z"/><path class="cls-2" d="M17.7,15.4a1.36,1.36,0,0,0,.91.34,1.38,1.38,0,0,0,1.05-.49,1.39,1.39,0,0,0-.14-2L14.64,9.08a1.39,1.39,0,1,0-1.82,2.11Z"/><path class="cls-2" d="M26.4,10.1a1.39,1.39,0,0,0,1.31.93,1.29,1.29,0,0,0,.47-.08A1.39,1.39,0,0,0,29,9.18L26.88,3.1A1.39,1.39,0,0,0,24.26,4Z"/><path class="cls-2" d="M40.6,9.77a1.51,1.51,0,0,0,1.51-1.5V1.5a1.51,1.51,0,0,0-3,0V8.27A1.5,1.5,0,0,0,40.6,9.77Z"/><path class="cls-3" d="M54.14,40.6a1.51,1.51,0,1,0,0,3h.75a1.51,1.51,0,0,0,0-3Z"/><path class="cls-3" d="M49.45,43.61a1.51,1.51,0,0,0,0-3H24.63a1.51,1.51,0,0,0,0,3Z"/><path d="M27.67,81.2v7.11H20.5a1.39,1.39,0,0,0-1.39,1.39V97H6a1.51,1.51,0,1,0,0,3h63.9a1.51,1.51,0,1,0,0-3H57.55V89.7a1.39,1.39,0,0,0-1.39-1.39H49V81.2H67.64a9.38,9.38,0,0,0,9-9.23v-32a9.22,9.22,0,0,0-8.27-9.07V20.3a1.5,1.5,0,0,0-1.5-1.5H13.53A1.5,1.5,0,0,0,12,20.3V30.83H9a9.18,9.18,0,0,0-9,9.11V72A9.36,9.36,0,0,0,9,81.2Zm27.09,9.89V97H21.89v-5.9ZM30.45,88.31V81.2H46.2v7.11ZM15,21.8H65.41V52.63H36A1.48,1.48,0,0,0,35,53L26.8,60.4l-.27-6.33A1.5,1.5,0,0,0,25,52.63H15ZM3,39.94a6.22,6.22,0,0,1,6-6.11h3V54.14a1.5,1.5,0,0,0,1.5,1.5H23.59l.34,8.09a1.53,1.53,0,0,0,.92,1.33,1.25,1.25,0,0,0,.37.09h.21a.78.78,0,0,0,.22,0h.05A1.35,1.35,0,0,0,26,65l.09,0a1.69,1.69,0,0,0,.31-.21l10.1-9.15H66.92a1.5,1.5,0,0,0,1.5-1.5V33.89a6.15,6.15,0,0,1,5.26,6v30H3Zm.08,33h70.5a6.38,6.38,0,0,1-6,5.27H48a1.23,1.23,0,0,0-.39-.07H29.06a1.34,1.34,0,0,0-.39.07H9A6.27,6.27,0,0,1,3.09,72.93Z"/><path class="cls-3" d="M48.69,33.08a1.5,1.5,0,1,0,0-3H23.13a1.5,1.5,0,1,0,0,3Z"/><path class="cls-3" d="M53.38,33.08h.76a1.5,1.5,0,0,0,0-3h-.76a1.5,1.5,0,0,0,0,3Z"/></g></g></svg>