<svg xmlns="http://www.w3.org/2000/svg" viewBox="0 0 129.93 100"><defs><style>.cls-1{fill:#5bdfb8;}.cls-2{fill:#bebfc1;}.cls-3{fill:#009;}</style></defs><title>ic-trends-data</title><g id="Layer_2" data-name="Layer 2"><g id="Layer_1-2" data-name="Layer 1"><polygon class="cls-1" points="88.9 96.58 88.9 93.16 88.9 77.77 88.9 74.36 88.9 58.97 116.26 58.97 116.26 96.58 88.9 96.58"/><path class="cls-2" d="M114.55,6.82V50a2.13,2.13,0,0,0,2.13,2.13h0A2.14,2.14,0,0,0,118.81,50V2.56A2.57,2.57,0,0,0,116.24,0h-94a2.56,2.56,0,0,0-2.56,2.56v1.7H112A2.57,2.57,0,0,1,114.55,6.82Z"/><path class="cls-3" d="M45.93,28.19H34a1.71,1.71,0,0,1,0-3.42h12a1.71,1.71,0,0,1,0,3.42Z"/><path d="M107.71,50.42V12.81A1.72,1.72,0,0,0,106,11.1H23.94a1.71,1.71,0,0,0-1.71,1.71V69.23a1.71,1.71,0,0,0,1.71,1.71H80.35a1.71,1.71,0,0,0,1.71-1.71h0a1.7,1.7,0,0,0-1.71-1.71H25.64v-53h78.65v35.9A1.72,1.72,0,0,0,106,52.13h0A1.72,1.72,0,0,0,107.71,50.42Z"/><path class="cls-3" d="M34,33.32a1.71,1.71,0,0,0,0,3.42h12a1.71,1.71,0,0,0,0-3.42Z"/><path d="M122.25,86.32a7.83,7.83,0,0,0,7.68-8V72.07a7.83,7.83,0,0,0-7.68-8h-2.57V57.26A1.72,1.72,0,0,0,118,55.55H87.19a1.72,1.72,0,0,0-1.71,1.71V96.58h-41V94.87H80.38a1.68,1.68,0,0,0,1.68-1.68v-.06a1.68,1.68,0,0,0-1.68-1.68h0A13.09,13.09,0,0,1,78.71,85V77.77h1.64a1.7,1.7,0,0,0,1.71-1.71h0a1.71,1.71,0,0,0-1.71-1.71H18.81V7.68h92.32V50.42a1.71,1.71,0,0,0,1.71,1.71h0a1.72,1.72,0,0,0,1.71-1.71V6.82A2.57,2.57,0,0,0,112,4.26H18a2.56,2.56,0,0,0-2.56,2.56V75.21A2.56,2.56,0,0,0,18,77.77H51.22V85a13.08,13.08,0,0,1-1.66,6.41H42.74A1.72,1.72,0,0,0,41,93.16v3.42H35.9V86.87a5.53,5.53,0,0,0-5.52-5.52H14.07a5.53,5.53,0,0,0-5.52,5.52v9.71H1.81A1.8,1.8,0,0,0,0,98a1.72,1.72,0,0,0,1.69,2H128.12a1.79,1.79,0,0,0,1.79-1.42,1.71,1.71,0,0,0-1.69-2h-8.54V86.32Zm-59-8.55h3.42V82.9a1.71,1.71,0,1,1-3.42,0ZM54.64,85V77.77h5.2V82.9a5.13,5.13,0,0,0,10.26,0V77.77h5.19V85a16.46,16.46,0,0,0,1.3,6.41H53.35A16.64,16.64,0,0,0,54.64,85ZM12,96.58V93.16h9.17a1.71,1.71,0,0,0,0-3.42H12V86.87a2.11,2.11,0,0,1,2.1-2.1H30.38a2.11,2.11,0,0,1,2.1,2.1v2.87H29.84a1.71,1.71,0,0,0,0,3.42h2.64v3.42ZM122.25,67.52a4.42,4.42,0,0,1,4.27,4.55v6.28a4.42,4.42,0,0,1-4.27,4.55h-2.57V67.52ZM88.9,96.58V59h27.36V96.58Z"/><path d="M111.13,88a1.71,1.71,0,0,0,1.71-1.71V69.23a1.71,1.71,0,0,0-3.42,0V86.32A1.7,1.7,0,0,0,111.13,88Z"/><path d="M111.13,89.53a1.91,1.91,0,0,0-.86.2l-.23.13-.2.16a1.92,1.92,0,0,0,0,2.86l.2.16.23.13a1.79,1.79,0,0,0,.86.21,1.93,1.93,0,0,0,0-3.85Z"/><path class="cls-3" d="M71,38.67a2.11,2.11,0,0,0-1.55,1.27l-3.85,9.25L59.27,41a2.13,2.13,0,0,0-3.61.39L49,55.65a2.12,2.12,0,0,0,1,2.83,2.08,2.08,0,0,0,.9.21,2.14,2.14,0,0,0,1.93-1.23L58,46.4l6.38,8.3a2.17,2.17,0,0,0,2,.81,2.12,2.12,0,0,0,1.68-1.29l4-9.71,4.07,4.07a2.13,2.13,0,0,0,3.27-.32L88.93,34a2.13,2.13,0,1,0-3.54-2.36l-8,12.06-4.48-4.49A2.13,2.13,0,0,0,71,38.67Z"/></g></g></svg>